<?xml version="1.0" encoding="UTF-8" standalone="no"?>
<!-- Created with Inkscape (http://www.inkscape.org/) -->

<svg
   xmlns:dc="http://purl.org/dc/elements/1.1/"
   xmlns:cc="http://creativecommons.org/ns#"
   xmlns:rdf="http://www.w3.org/1999/02/22-rdf-syntax-ns#"
   xmlns:svg="http://www.w3.org/2000/svg"
   xmlns="http://www.w3.org/2000/svg"
   xmlns:sodipodi="http://sodipodi.sourceforge.net/DTD/sodipodi-0.dtd"
   xmlns:inkscape="http://www.inkscape.org/namespaces/inkscape"
   width="16"
   height="16"
   id="svg3043"
   version="1.1"
   inkscape:version="0.48.2 r9819"
   inkscape:export-filename="/tmp/g5203.png"
   inkscape:export-xdpi="90"
   inkscape:export-ydpi="90"
   sodipodi:docname="New document 2">
  <defs
     id="defs3045" />
  <sodipodi:namedview
     id="base"
     pagecolor="#ffffff"
     bordercolor="#666666"
     borderopacity="1.0"
     inkscape:pageopacity="0.0"
     inkscape:pageshadow="2"
     inkscape:zoom="17.087694"
     inkscape:cx="17.017835"
     inkscape:cy="18.112464"
     inkscape:document-units="px"
     inkscape:current-layer="layer1"
     showgrid="false"
     inkscape:window-width="1290"
     inkscape:window-height="817"
     inkscape:window-x="-5"
     inkscape:window-y="-8"
     inkscape:window-maximized="1" />
  <metadata
     id="metadata3048">
    <rdf:RDF>
      <cc:Work
         rdf:about="">
        <dc:format>image/svg+xml</dc:format>
        <dc:type
           rdf:resource="http://purl.org/dc/dcmitype/StillImage" />
        <dc:title></dc:title>
      </cc:Work>
    </rdf:RDF>
  </metadata>
  <g
     inkscape:label="Layer 1"
     inkscape:groupmode="layer"
     id="layer1"
     transform="translate(0,-1036.3622)">
    <g
       id="g5203"
       transform="matrix(0.12255572,0,0,0.13405787,-50.186943,1029.3827)"
       style="stroke-width:7.43097496;stroke-miterlimit:4;stroke-dasharray:none"
       inkscape:export-xdpi="90"
       inkscape:export-ydpi="90">
      <g
         id="g5205"
         style="stroke-width:7.43097496;stroke-miterlimit:4;stroke-dasharray:none">
        <path
           d="m 445.813,72.26 -11.885,-0.086 v 14.457 h 11.885 c 6.102,0 11.047,4.945 11.047,11.047 0,6.102 -4.945,11.049 -11.047,11.049 l -17.471,-0.131 V 72.102 h -14.953 v 80.207 h 14.953 v -29.211 h 17.471 c 14.038,0 25.419,-11.383 25.419,-25.42 0,-14.037 -11.381,-25.418 -25.419,-25.418 z"
           id="path5207"
           inkscape:connector-curvature="0"
           style="fill:#ffffff;stroke-width:7.43097496;stroke-miterlimit:4;stroke-dasharray:none" />
      </g>
      <g
         id="g5209"
         style="stroke-width:7.43097496;stroke-miterlimit:4;stroke-dasharray:none">
        <path
           d="m 445.813,72.26 -11.885,-0.086 0,14.457 11.885,0 c 6.102,0 11.047,4.945 11.047,11.047 0,6.102 -4.945,11.049 -11.047,11.049 l -17.471,-0.131 0,-36.494 -14.953,0 0,80.84135 14.953,0 0,-29.84535 17.471,0 c 14.038,0 25.419,-11.383 25.419,-25.42 0,-14.037 -11.381,-25.418 -25.419,-25.418 z"
           id="path5211"
           inkscape:connector-curvature="0"
           style="fill:none;stroke:#000000;stroke-width:7.43097496;stroke-linecap:round;stroke-linejoin:round;stroke-miterlimit:4;stroke-dasharray:none"
           sodipodi:nodetypes="cccsscccccccssc" />
      </g>
    </g>
    <g
       id="g5221"
       transform="matrix(0.12255572,0,0,0.13405787,-50.186943,1029.3827)"
       style="stroke-width:7.43097496;stroke-miterlimit:4;stroke-dasharray:none"
       inkscape:export-filename="/tmp/g5203.png"
       inkscape:export-xdpi="90"
       inkscape:export-ydpi="90">
      <g
         id="g5223"
         style="stroke-width:7.43097496;stroke-miterlimit:4;stroke-dasharray:none">
        <path
           d="m 510.751,72.26 -32.187,-0.086 v 14.457 h 32.187 c 6.101,0 11.047,4.945 11.047,11.047 0,6.102 -4.946,11.049 -11.047,11.049 l -17.599,-0.174 V 92.412 H 478.2 v 59.896 h 14.953 v -29.211 h 17.599 c 14.037,0 25.418,-11.383 25.418,-25.42 0,-14.037 -11.381,-25.417 -25.419,-25.417 z"
           id="path5225"
           inkscape:connector-curvature="0"
           style="fill:#ffffff;stroke-width:7.43097496;stroke-miterlimit:4;stroke-dasharray:none" />
      </g>
      <g
         id="g5227"
         style="stroke-width:7.43097496;stroke-miterlimit:4;stroke-dasharray:none">
        <path
           d="m 510.751,72.26 -32.73213,-0.086 0,14.457 32.73213,0 c 6.101,0 11.047,4.945 11.047,11.047 0,6.102 -4.946,11.049 -11.047,11.049 l -17.599,-0.174 0,-16.141 -14.952,0 0,60.53035 14.953,0 0,-29.84535 17.599,0 c 14.037,0 25.418,-11.383 25.418,-25.42 0,-14.037 -11.381,-25.417 -25.419,-25.417 z"
           id="path5229"
           inkscape:connector-curvature="0"
           style="fill:#ffffff;stroke:#000000;stroke-width:7.43097496;stroke-linecap:round;stroke-linejoin:round;stroke-miterlimit:4;stroke-dasharray:none"
           sodipodi:nodetypes="cccsscccccccssc" />
      </g>
    </g>
  </g>
</svg>
